<svg width="800" height="500" viewBox="0 0 800 500" xmlns="http://www.w3.org/2000/svg">
  <defs>
    <linearGradient id="bg" x1="0%" y1="0%" x2="100%" y2="100%">
      <stop offset="0%" stop-color="#0f172a" />
      <stop offset="100%" stop-color="#1e293b" />
    </linearGradient>
    <linearGradient id="grid" x1="0%" y1="0%" x2="0%" y2="100%">
      <stop offset="0%" stop-color="#22d3ee" stop-opacity="0.7" />
      <stop offset="100%" stop-color="#6366f1" stop-opacity="0.2" />
    </linearGradient>
  </defs>
  <rect width="800" height="500" rx="32" fill="url(#bg)" />
  <g stroke="rgba(148, 163, 184, 0.2)" stroke-width="1">
    <path d="M80 120 H720" />
    <path d="M80 200 H720" />
    <path d="M80 280 H720" />
    <path d="M80 360 H720" />
  </g>
  <polyline points="80,330 160,280 220,310 300,240 360,270 420,180 500,210 560,160 640,190 720,140" fill="none" stroke="url(#grid)" stroke-width="10" stroke-linecap="round" stroke-linejoin="round" />
  <rect x="120" y="80" width="560" height="340" rx="28" fill="rgba(15,23,42,0.85)" stroke="rgba(99,102,241,0.45)" stroke-width="2" />
  <g transform="translate(160,140)">
    <text x="0" y="0" font-family="'Space Grotesk', sans-serif" font-size="34" font-weight="600" fill="#e0f2fe">Stock Bot Command Center</text>
    <text x="0" y="40" font-family="'Space Grotesk', sans-serif" font-size="20" fill="rgba(148, 163, 184, 0.85)">Voice-driven trading tools & live analytics.</text>
  </g>
  <g transform="translate(160,230)" font-family="'Space Grotesk', sans-serif" font-size="18" fill="#a5b4fc">
    <text x="0" y="0">• Real-time equities feed</text>
    <text x="0" y="32">• LLM trade assistant</text>
    <text x="0" y="64">• Multi-broker orchestration</text>
  </g>
  <text x="120" y="460" font-family="'Space Grotesk', sans-serif" font-size="18" fill="rgba(165, 180, 252, 0.7)">
    Replace this placeholder by exporting a 1600×1000 screenshot to /public/static/portfolio/stockbot-preview.svg
  </text>
</svg>
